# xmcd
#
# Track frame offsets: 
#        150
#        10057
#        21845
#        35114
#        47223
#        58517
#        71363
#        81576
#        91162
#        104635
#        118100
#        131063
#        141762
#        155564
#        168230
#        182651
#        192472
#        204511
#        216346
#        229364
#        242625
#        256545
#        266389
#        281100
#        295192
#        304809
#
# Disc length: 4225 seconds
#
# Revision: 5
# Processed by: cddbd v1.5.2PL0 Copyright (c) Steve Scherf et al.
# Submitted via: ExactAudioCopyFreeDBPlugin 1.0
#
DISCID=85107f1a
DTITLE=Hank Snow - I'm Movin' On 1949-1953 Vol. 4
DYEAR=1989
DGENRE=Country
TTITLE0=Just Keep A Movin'
TTITLE1=My Sweet Conchita
TTITLE2=Panamama
TTITLE3=Unfaithful
TTITLE4=Wabash Blues
TTITLE5=It's You Only You That I Love (with Betty Cody)
TTITLE6=Would You Mind
TTITLE7=In An Old Dutch Garden, By An Old Dutch Mill
TTITLE8=The Owl And I
TTITLE9=I Don't Hurt Anymore
TTITLE10=Stolen Moments
TTITLE11=Hilo March
TTITLE12=Act 1, Act 2, Act 3
TTITLE13=Yellow Roses
TTITLE14=No Longer A Prisoner
TTITLE15=Sweet Marie
TTITLE16=My Arabian Baby
TTITLE17=The Bill Is Falling Due
TTITLE18=Blossoms In The Springtime
TTITLE19=I'm Glad I'm On The Inside (Looking Out )
TTITLE20=It's Reveille Time In Heaven
TTITLE21=My Religion's Not Old Fashioned
TTITLE22=Invisible Hands
TTITLE23=Little Children ( Hope Of The World )
TTITLE24=The Alphabet
TTITLE25=(The Angels Are Lighting) God's Little Candles
EXTD=
EXTT0=
EXTT1=
EXTT2=
EXTT3=
EXTT4=
EXTT5=
EXTT6=
EXTT7=
EXTT8=
EXTT9=
EXTT10=
EXTT11=
EXTT12=
EXTT13=
EXTT14=
EXTT15=
EXTT16=
EXTT17=
EXTT18=
EXTT19=
EXTT20=
EXTT21=
EXTT22=
EXTT23=
EXTT24=
EXTT25=
PLAYORDER=
